<?xml version="1.0" encoding="utf-8" ?>
<svg baseProfile="tiny" height="100%" version="1.2" width="100%" xmlns="http://www.w3.org/2000/svg" xmlns:ev="http://www.w3.org/2001/xml-events" xmlns:xlink="http://www.w3.org/1999/xlink"><defs /><polyline fill="none" points="130.8,162.0 130.8,161.0 130.8,160.0 130.8,159.0 130.8,158.0 130.8,157.0 130.8,156.0 130.8,155.0 130.8,154.0 130.8,153.0 130.8,152.0 130.8,151.0 130.8,150.0 130.8,149.0 130.8,148.0 130.8,147.0 130.8,146.0 130.8,145.0 130.8,144.0 130.8,143.0 130.8,142.0 130.8,141.0 130.8,140.0 130.8,139.0 130.8,138.0 130.8,137.0 130.8,136.0 130.8,135.0 130.8,134.0 130.8,133.0 130.8,132.0 130.8,131.0 130.8,130.0 130.8,129.0 130.8,128.0 130.8,127.0 130.8,126.0 130.8,125.0 130.8,124.0 130.8,123.0 130.8,122.0 130.8,121.0 130.8,120.0 130.8,119.0 130.8,118.0 130.0,117.2 129.0,117.2 128.0,117.2 127.0,117.2 126.2,118.0 126.2,119.0 126.2,120.0 126.2,121.0 126.2,122.0 126.2,123.0 126.2,124.0 126.2,125.0 126.2,126.0 126.2,127.0 126.2,128.0 126.2,129.0 126.2,130.0 126.2,131.0 126.0,131.2 125.8,131.0 125.0,130.2 124.8,130.0 124.0,129.2 123.8,129.0 123.8,128.0 123.0,127.2 122.8,127.0 122.0,126.2 121.8,126.0 121.0,125.2 120.8,125.0 120.0,124.2 119.8,124.0 119.0,123.2 118.8,123.0 118.0,122.2 117.8,122.0 117.0,121.2 116.8,121.0 116.8,120.0 116.0,119.2 115.8,119.0 115.0,118.2 114.8,118.0 114.0,117.2 113.0,117.2 112.2,118.0 112.2,119.0 112.2,120.0 112.2,121.0 112.2,122.0 112.2,123.0 112.2,124.0 112.2,125.0 112.2,126.0 112.2,127.0 112.2,128.0 112.2,129.0 112.2,130.0 112.2,131.0 112.2,132.0 112.2,133.0 112.2,134.0 112.2,135.0 112.2,136.0 112.2,137.0 112.2,138.0 112.2,139.0 113.0,139.8 114.0,139.8 115.0,139.8 115.8,139.0 115.8,138.0 115.8,137.0 115.8,136.0 115.8,135.0 115.8,134.0 115.8,133.0 115.8,132.0 115.8,131.0 115.8,130.0 115.8,129.0 115.8,128.0 115.8,127.0 115.8,126.0 116.0,125.8 116.2,126.0 117.0,126.8 117.2,127.0 118.0,127.8 118.2,128.0 119.0,128.8 119.2,129.0 120.0,129.8 120.2,130.0 121.0,130.8 121.2,131.0 122.0,131.8 122.2,132.0 123.0,132.8 123.2,133.0 123.2,134.0 124.0,134.8 124.2,135.0 125.0,135.8 125.2,136.0 126.0,136.8 126.2,137.0 126.2,138.0 126.2,139.0 126.2,140.0 126.2,141.0 126.2,142.0 126.2,143.0 126.2,144.0 126.2,145.0 126.2,146.0 126.2,147.0 126.2,148.0 126.2,149.0 126.2,150.0 126.2,151.0 126.2,152.0 126.2,153.0 126.2,154.0 126.2,155.0 126.2,156.0 126.2,157.0 126.2,158.0 126.0,158.2 125.0,158.2 124.0,158.2 123.0,158.2 122.0,158.2 121.0,158.2 120.0,158.2 119.0,158.2 118.0,158.2 117.0,158.2 116.0,158.2 115.0,158.2 114.0,158.2 113.0,158.2 112.0,158.2 111.0,158.2 110.0,158.2 109.0,158.2 108.0,158.2 107.0,158.2 106.0,158.2 105.0,158.2 104.0,158.2 103.0,158.2 102.0,158.2 101.0,158.2 100.0,158.2 99.0,158.2 98.0,158.2 97.0,158.2 96.0,158.2 95.0,158.2 94.0,158.2 93.0,158.2 92.0,158.2 91.0,158.2 90.0,158.2 89.0,158.2 88.0,158.2 87.0,158.2 86.0,158.2 85.0,158.2 84.0,158.2 83.0,158.2 82.0,158.2 81.0,158.2 80.0,158.2 79.0,158.2 78.0,158.2 77.0,158.2 76.0,158.2 75.0,158.2 74.0,158.2 73.0,158.2 72.0,158.2 71.0,158.2 70.0,158.2 69.0,158.2 68.0,158.2 67.0,158.2 66.0,158.2 65.0,158.2 64.0,158.2 63.0,158.2 62.0,158.2 61.0,158.2 60.0,158.2 59.0,158.2 58.0,158.2 57.0,158.2 56.0,158.2 55.0,158.2 54.0,158.2 53.0,158.2 52.0,158.2 51.0,158.2 50.0,158.2 49.0,158.2 48.0,158.2 47.0,158.2 46.0,158.2 45.0,158.2 44.0,158.2 43.0,158.2 42.0,158.2 41.0,158.2 40.0,158.2 39.0,158.2 38.0,158.2 37.0,158.2 36.0,158.2 35.0,158.2 34.0,158.2 33.8,158.0 33.8,157.0 33.8,156.0 33.8,155.0 33.8,154.0 33.8,153.0 33.8,152.0 33.8,151.0 33.8,150.0 33.8,149.0 33.8,148.0 33.8,147.0 33.8,146.0 33.8,145.0 33.8,144.0 33.8,143.0 33.8,142.0 33.8,141.0 33.8,140.0 33.8,139.0 33.8,138.0 33.8,137.0 33.8,136.0 33.8,135.0 33.8,134.0 33.8,133.0 33.8,132.0 33.8,131.0 33.8,130.0 33.8,129.0 33.8,128.0 33.8,127.0 33.8,126.0 33.8,125.0 33.8,124.0 33.8,123.0 33.8,122.0 33.8,121.0 33.8,120.0 33.8,119.0 33.8,118.0 33.8,117.0 33.8,116.0 33.8,115.0 33.8,114.0 33.8,113.0 33.8,112.0 33.8,111.0 33.8,110.0 33.8,109.0 33.8,108.0 33.8,107.0 33.8,106.0 33.8,105.0 33.8,104.0 33.8,103.0 33.8,102.0 33.8,101.0 33.8,100.0 33.8,99.0 33.8,98.0 33.8,97.0 33.8,96.0 33.8,95.0 33.8,94.0 33.8,93.0 33.8,92.0 33.8,91.0 33.8,90.0 33.8,89.0 33.8,88.0 33.8,87.0 33.8,86.0 33.8,85.0 33.8,84.0 33.8,83.0 33.8,82.0 33.8,81.0 33.8,80.0 33.8,79.0 33.8,78.0 33.8,77.0 33.8,76.0 33.8,75.0 33.8,74.0 33.8,73.0 33.8,72.0 33.8,71.0 33.8,70.0 33.8,69.0 33.8,68.0 33.8,67.0 33.8,66.0 34.0,65.8 35.0,65.8 36.0,65.8 37.0,65.8 38.0,65.8 39.0,65.8 40.0,65.8 41.0,65.8 42.0,65.8 43.0,65.8 44.0,65.8 45.0,65.8 46.0,65.8 47.0,65.8 48.0,65.8 49.0,65.8 50.0,65.8 51.0,65.8 52.0,65.8 53.0,65.8 54.0,65.8 55.0,65.8 56.0,65.8 57.0,65.8 58.0,65.8 59.0,65.8 60.0,65.8 61.0,65.8 62.0,65.8 63.0,65.8 64.0,65.8 65.0,65.8 66.0,65.8 67.0,65.8 68.0,65.8 69.0,65.8 70.0,65.8 71.0,65.8 72.0,65.8 73.0,65.8 74.0,65.8 75.0,65.8 76.0,65.8 77.0,65.8 78.0,65.8 79.0,65.8 80.0,65.8 81.0,65.8 82.0,65.8 83.0,65.8 84.0,65.8 85.0,65.8 86.0,65.8 87.0,65.8 88.0,65.8 89.0,65.8 90.0,65.8 91.0,65.8 92.0,65.8 93.0,65.8 94.0,65.8 95.0,65.8 96.0,65.8 97.0,65.8 98.0,65.8 99.0,65.8 100.0,65.8 101.0,65.8 102.0,65.8 103.0,65.8 104.0,65.8 105.0,65.8 106.0,65.8 107.0,65.8 108.0,65.8 109.0,65.8 110.0,65.8 111.0,65.8 112.0,65.8 113.0,65.8 114.0,65.8 115.0,65.8 116.0,65.8 117.0,65.8 118.0,65.8 119.0,65.8 120.0,65.8 121.0,65.8 122.0,65.8 123.0,65.8 124.0,65.8 125.0,65.8 126.0,65.8 126.2,66.0 126.2,67.0 126.2,68.0 126.2,69.0 126.2,70.0 126.2,71.0 126.2,72.0 126.2,73.0 126.2,74.0 126.2,75.0 126.2,76.0 126.2,77.0 126.2,78.0 126.2,79.0 126.2,80.0 126.2,81.0 126.2,82.0 126.2,83.0 126.2,84.0 126.2,85.0 126.2,86.0 126.2,87.0 126.2,88.0 126.2,89.0 126.2,90.0 126.2,91.0 126.2,92.0 126.2,93.0 126.2,94.0 126.2,95.0 126.2,96.0 126.2,97.0 126.2,98.0 126.2,99.0 126.2,100.0 126.2,101.0 126.2,102.0 126.2,103.0 126.0,103.2 125.0,103.2 124.0,103.2 123.0,103.2 122.0,103.2 121.0,103.2 120.0,103.2 119.0,103.2 118.0,103.2 117.0,103.2 116.0,103.2 115.0,103.2 114.0,103.2 113.0,103.2 112.0,103.2 111.0,103.2 110.0,103.2 109.0,103.2 108.0,103.2 107.0,103.2 106.8,103.0 106.8,102.0 106.8,101.0 106.8,100.0 106.8,99.0 106.8,98.0 106.8,97.0 106.8,96.0 106.8,95.0 106.8,94.0 106.8,93.0 106.8,92.0 106.8,91.0 106.8,90.0 106.8,89.0 106.8,88.0 106.8,87.0 106.8,86.0 106.8,85.0 106.0,84.2 105.0,84.2 104.0,84.2 103.0,84.2 102.2,85.0 102.2,86.0 102.2,87.0 102.2,88.0 102.2,89.0 102.2,90.0 102.2,91.0 102.2,92.0 102.2,93.0 102.2,94.0 102.2,95.0 102.2,96.0 102.2,97.0 102.2,98.0 102.2,99.0 102.2,100.0 102.2,101.0 102.2,102.0 102.2,103.0 102.2,104.0 102.2,105.0 102.2,106.0 103.0,106.8 104.0,106.8 105.0,106.8 106.0,106.8 107.0,106.8 108.0,106.8 109.0,106.8 110.0,106.8 111.0,106.8 112.0,106.8 113.0,106.8 114.0,106.8 115.0,106.8 116.0,106.8 117.0,106.8 118.0,106.8 119.0,106.8 120.0,106.8 121.0,106.8 122.0,106.8 123.0,106.8 124.0,106.8 125.0,106.8 126.0,106.8 127.0,106.8 128.0,106.8 129.0,106.8 130.0,106.8 130.8,106.0 130.8,105.0 130.8,104.0 130.8,103.0 130.8,102.0 130.8,101.0 130.8,100.0 130.8,99.0 130.8,98.0 130.8,97.0 130.8,96.0 130.8,95.0 130.8,94.0 130.8,93.0 130.8,92.0 130.8,91.0 130.8,90.0 130.8,89.0 130.8,88.0 130.8,87.0 130.8,86.0 130.8,85.0 130.8,84.0 130.8,83.0 130.8,82.0 130.8,81.0 130.8,80.0 130.8,79.0 130.8,78.0 130.8,77.0 130.8,76.0 130.8,75.0 130.8,74.0 130.8,73.0 130.8,72.0 130.8,71.0 130.8,70.0 130.8,69.0 130.8,68.0 130.8,67.0 130.8,66.0 130.8,65.0 130.8,64.0 130.8,63.0 130.8,62.0 130.0,61.2 129.0,61.2 128.0,61.2 127.0,61.2 126.0,61.2 125.0,61.2 124.0,61.2 123.0,61.2 122.0,61.2 121.0,61.2 120.0,61.2 119.0,61.2 118.0,61.2 117.0,61.2 116.0,61.2 115.0,61.2 114.0,61.2 113.0,61.2 112.0,61.2 111.0,61.2 110.0,61.2 109.0,61.2 108.0,61.2 107.0,61.2 106.0,61.2 105.0,61.2 104.0,61.2 103.0,61.2 102.0,61.2 101.0,61.2 100.0,61.2 99.0,61.2 98.0,61.2 97.0,61.2 96.0,61.2 95.0,61.2 94.0,61.2 93.0,61.2 92.0,61.2 91.0,61.2 90.0,61.2 89.0,61.2 88.0,61.2 87.0,61.2 86.0,61.2 85.0,61.2 84.0,61.2 83.0,61.2 82.0,61.2 81.0,61.2 80.0,61.2 79.0,61.2 78.0,61.2 77.0,61.2 76.0,61.2 75.0,61.2 74.0,61.2 73.0,61.2 72.0,61.2 71.0,61.2 70.0,61.2 69.0,61.2 68.0,61.2 67.0,61.2 66.0,61.2 65.0,61.2 64.0,61.2 63.0,61.2 62.0,61.2 61.0,61.2 60.0,61.2 59.0,61.2 58.0,61.2 57.0,61.2 56.0,61.2 55.0,61.2 54.0,61.2 53.0,61.2 52.0,61.2 51.0,61.2 50.0,61.2 49.0,61.2 48.0,61.2 47.0,61.2 46.0,61.2 45.0,61.2 44.0,61.2 43.0,61.2 42.0,61.2 41.0,61.2 40.0,61.2 39.0,61.2 38.0,61.2 37.0,61.2 36.0,61.2 35.0,61.2 34.0,61.2 33.0,61.2 32.0,61.2 31.0,61.2 30.0,61.2 29.2,62.0 29.2,63.0 29.2,64.0 29.2,65.0 29.2,66.0 29.2,67.0 29.2,68.0 29.2,69.0 29.2,70.0 29.2,71.0 29.2,72.0 29.2,73.0 29.2,74.0 29.2,75.0 29.2,76.0 29.2,77.0 29.2,78.0 29.2,79.0 29.2,80.0 29.2,81.0 29.2,82.0 29.2,83.0 29.2,84.0 29.2,85.0 29.2,86.0 29.2,87.0 29.2,88.0 29.2,89.0 29.2,90.0 29.2,91.0 29.2,92.0 29.2,93.0 29.2,94.0 29.2,95.0 29.2,96.0 29.2,97.0 29.2,98.0 29.2,99.0 29.2,100.0 29.2,101.0 29.2,102.0 29.2,103.0 29.2,104.0 29.2,105.0 29.2,106.0 29.2,107.0 29.2,108.0 29.2,109.0 29.2,110.0 29.2,111.0 29.2,112.0 29.2,113.0 29.2,114.0 29.2,115.0 29.2,116.0 29.2,117.0 29.2,118.0 29.2,119.0 29.2,120.0 29.2,121.0 29.2,122.0 29.2,123.0 29.2,124.0 29.2,125.0 29.2,126.0 29.2,127.0 29.2,128.0 29.2,129.0 29.2,130.0 29.2,131.0 29.2,132.0 29.2,133.0 29.2,134.0 29.2,135.0 29.2,136.0 29.2,137.0 29.2,138.0 29.2,139.0 29.2,140.0 29.2,141.0 29.2,142.0 29.2,143.0 29.2,144.0 29.2,145.0 29.2,146.0 29.2,147.0 29.2,148.0 29.2,149.0 29.2,150.0 29.2,151.0 29.2,152.0 29.2,153.0 29.2,154.0 29.2,155.0 29.2,156.0 29.2,157.0 29.2,158.0 29.2,159.0 29.2,160.0 29.2,161.0 29.2,162.0 30.0,162.8 31.0,162.8 32.0,162.8 33.0,162.8 34.0,162.8 35.0,162.8 36.0,162.8 37.0,162.8 38.0,162.8 39.0,162.8 40.0,162.8 41.0,162.8 42.0,162.8 43.0,162.8 44.0,162.8 45.0,162.8 46.0,162.8 47.0,162.8 48.0,162.8 49.0,162.8 50.0,162.8 51.0,162.8 52.0,162.8 53.0,162.8 54.0,162.8 55.0,162.8 56.0,162.8 57.0,162.8 58.0,162.8 59.0,162.8 60.0,162.8 61.0,162.8 62.0,162.8 63.0,162.8 64.0,162.8 65.0,162.8 66.0,162.8 67.0,162.8 68.0,162.8 69.0,162.8 70.0,162.8 71.0,162.8 72.0,162.8 73.0,162.8 74.0,162.8 75.0,162.8 76.0,162.8 77.0,162.8 78.0,162.8 79.0,162.8 80.0,162.8 81.0,162.8 82.0,162.8 83.0,162.8 84.0,162.8 85.0,162.8 86.0,162.8 87.0,162.8 88.0,162.8 89.0,162.8 90.0,162.8 91.0,162.8 92.0,162.8 93.0,162.8 94.0,162.8 95.0,162.8 96.0,162.8 97.0,162.8 98.0,162.8 99.0,162.8 100.0,162.8 101.0,162.8 102.0,162.8 103.0,162.8 104.0,162.8 105.0,162.8 106.0,162.8 107.0,162.8 108.0,162.8 109.0,162.8 110.0,162.8 111.0,162.8 112.0,162.8 113.0,162.8 114.0,162.8 115.0,162.8 116.0,162.8 117.0,162.8 118.0,162.8 119.0,162.8 120.0,162.8 121.0,162.8 122.0,162.8 123.0,162.8 124.0,162.8 125.0,162.8 126.0,162.8 127.0,162.8 128.0,162.8 129.0,162.8 130.0,162.8 130.8,162.0" stroke="black" stroke-width="1" /><polyline fill="none" points="74.8,106.0 74.8,105.0 74.8,104.0 74.8,103.0 74.8,102.0 74.8,101.0 74.8,100.0 74.8,99.0 74.8,98.0 74.8,97.0 74.8,96.0 74.8,95.0 74.8,94.0 74.8,93.0 74.8,92.0 74.8,91.0 74.8,90.0 74.8,89.0 74.8,88.0 74.8,87.0 74.8,86.0 74.8,85.0 74.0,84.2 73.0,84.2 72.0,84.2 71.0,84.2 70.2,85.0 70.2,86.0 70.2,87.0 70.2,88.0 70.2,89.0 70.2,90.0 70.2,91.0 70.2,92.0 70.2,93.0 70.2,94.0 70.2,95.0 70.2,96.0 70.2,97.0 70.2,98.0 70.0,98.2 69.8,98.0 69.0,97.2 68.8,97.0 68.0,96.2 67.8,96.0 67.8,95.0 67.0,94.2 66.8,94.0 66.0,93.2 65.8,93.0 65.0,92.2 64.8,92.0 64.0,91.2 63.8,91.0 63.0,90.2 62.8,90.0 62.0,89.2 61.8,89.0 61.0,88.2 60.8,88.0 60.8,87.0 60.0,86.2 59.8,86.0 59.0,85.2 58.8,85.0 58.0,84.2 57.0,84.2 56.2,85.0 56.2,86.0 56.2,87.0 56.2,88.0 56.2,89.0 56.2,90.0 56.2,91.0 56.2,92.0 56.2,93.0 56.2,94.0 56.2,95.0 56.2,96.0 56.2,97.0 56.2,98.0 56.2,99.0 56.2,100.0 56.2,101.0 56.2,102.0 56.2,103.0 56.2,104.0 56.2,105.0 56.2,106.0 57.0,106.8 58.0,106.8 59.0,106.8 60.0,106.8 60.8,106.0 60.8,105.0 60.8,104.0 60.8,103.0 60.8,102.0 60.8,101.0 60.8,100.0 60.8,99.0 60.8,98.0 60.8,97.0 60.8,96.0 60.8,95.0 60.8,94.0 61.0,93.8 61.2,94.0 62.0,94.8 62.2,95.0 63.0,95.8 63.2,96.0 64.0,96.8 64.2,97.0 65.0,97.8 65.2,98.0 66.0,98.8 66.2,99.0 66.2,100.0 67.0,100.8 67.2,101.0 68.0,101.8 68.2,102.0 69.0,102.8 69.2,103.0 70.0,103.8 70.2,104.0 71.0,104.8 71.2,105.0 72.0,105.8 72.2,106.0 73.0,106.8 74.0,106.8 74.8,106.0" stroke="black" stroke-width="1" /><polyline fill="none" points="97.8,106.0 97.8,105.0 97.8,104.0 97.8,103.0 97.8,102.0 97.8,101.0 97.8,100.0 97.8,99.0 97.8,98.0 97.8,97.0 97.8,96.0 97.8,95.0 97.8,94.0 97.8,93.0 97.8,92.0 97.8,91.0 97.8,90.0 97.8,89.0 97.8,88.0 97.8,87.0 97.8,86.0 97.8,85.0 97.0,84.2 96.0,84.2 95.0,84.2 94.2,85.0 94.0,85.2 93.2,86.0 93.2,87.0 93.2,88.0 93.2,89.0 93.2,90.0 93.2,91.0 93.2,92.0 93.2,93.0 93.0,93.2 92.0,93.2 91.0,93.2 90.0,93.2 89.0,93.2 88.0,93.2 87.0,93.2 86.0,93.2 85.0,93.2 84.0,93.2 83.8,93.0 83.8,92.0 83.8,91.0 83.8,90.0 83.8,89.0 83.8,88.0 83.8,87.0 83.8,86.0 83.8,85.0 83.0,84.2 82.0,84.2 81.0,84.2 80.0,84.2 79.2,85.0 79.2,86.0 79.2,87.0 79.2,88.0 79.2,89.0 79.2,90.0 79.2,91.0 79.2,92.0 79.2,93.0 79.2,94.0 79.2,95.0 79.2,96.0 79.2,97.0 79.2,98.0 79.2,99.0 79.2,100.0 79.2,101.0 79.2,102.0 79.2,103.0 79.2,104.0 79.2,105.0 79.2,106.0 80.0,106.8 81.0,106.8 82.0,106.8 83.0,106.8 83.8,106.0 83.8,105.0 83.8,104.0 83.8,103.0 83.8,102.0 83.8,101.0 83.8,100.0 83.8,99.0 83.8,98.0 83.8,97.0 84.0,96.8 85.0,96.8 86.0,96.8 87.0,96.8 88.0,96.8 89.0,96.8 90.0,96.8 91.0,96.8 92.0,96.8 93.0,96.8 93.2,97.0 93.2,98.0 93.2,99.0 93.2,100.0 93.2,101.0 93.2,102.0 93.2,103.0 93.2,104.0 93.2,105.0 93.2,106.0 94.0,106.8 95.0,106.8 96.0,106.8 97.0,106.8 97.8,106.0" stroke="black" stroke-width="1" /><polyline fill="none" points="66.8,139.0 67.0,138.8 68.0,138.8 68.8,138.0 69.0,137.8 69.8,137.0 69.8,136.0 70.0,135.8 70.8,135.0 70.8,134.0 70.8,133.0 70.8,132.0 70.8,131.0 70.0,130.2 69.8,130.0 69.0,129.2 68.8,129.0 68.0,128.2 67.8,128.0 67.0,127.2 66.0,127.2 65.8,127.0 65.0,126.2 64.0,126.2 63.8,126.0 63.0,125.2 62.0,125.2 61.8,125.0 61.0,124.2 60.8,124.0 60.0,123.2 59.8,123.0 60.0,122.8 60.8,122.0 61.0,121.8 61.8,121.0 62.0,120.8 63.0,120.8 64.0,120.8 65.0,120.8 65.2,121.0 66.0,121.8 66.2,122.0 67.0,122.8 68.0,122.8 69.0,122.8 69.8,122.0 69.8,121.0 69.8,120.0 69.0,119.2 68.8,119.0 68.0,118.2 67.8,118.0 67.0,117.2 66.0,117.2 65.0,117.2 64.0,117.2 63.0,117.2 62.0,117.2 61.0,117.2 60.0,117.2 59.2,118.0 59.0,118.2 58.0,118.2 57.2,119.0 57.2,120.0 57.0,120.2 56.2,121.0 56.2,122.0 56.2,123.0 56.2,124.0 56.2,125.0 57.0,125.8 57.2,126.0 57.2,127.0 58.0,127.8 59.0,127.8 59.2,128.0 60.0,128.8 60.2,129.0 61.0,129.8 62.0,129.8 63.0,129.8 63.2,130.0 64.0,130.8 64.2,131.0 65.0,131.8 66.0,131.8 66.2,132.0 66.2,133.0 66.2,134.0 66.2,135.0 66.0,135.2 65.0,135.2 64.2,136.0 64.0,136.2 63.0,136.2 62.0,136.2 61.8,136.0 61.0,135.2 60.0,135.2 59.8,135.0 59.0,134.2 58.8,134.0 58.0,133.2 57.0,133.2 56.0,133.2 55.2,134.0 55.2,135.0 55.2,136.0 56.0,136.8 56.2,137.0 57.0,137.8 57.2,138.0 58.0,138.8 59.0,138.8 59.2,139.0 60.0,139.8 61.0,139.8 62.0,139.8 63.0,139.8 64.0,139.8 65.0,139.8 66.0,139.8 66.8,139.0" stroke="black" stroke-width="1" /><polyline fill="none" points="83.8,139.0 83.8,138.0 83.8,137.0 83.8,136.0 83.8,135.0 83.8,134.0 83.8,133.0 83.8,132.0 83.8,131.0 83.8,130.0 83.8,129.0 83.8,128.0 83.8,127.0 83.8,126.0 83.8,125.0 83.8,124.0 83.8,123.0 83.8,122.0 83.8,121.0 84.0,120.8 85.0,120.8 86.0,120.8 87.0,120.8 88.0,120.8 89.0,120.8 90.0,120.8 90.8,120.0 90.8,119.0 90.8,118.0 90.0,117.2 89.0,117.2 88.0,117.2 87.0,117.2 86.0,117.2 85.0,117.2 84.0,117.2 83.0,117.2 82.0,117.2 81.0,117.2 80.0,117.2 79.0,117.2 78.0,117.2 77.0,117.2 76.0,117.2 75.0,117.2 74.0,117.2 73.0,117.2 72.2,118.0 72.2,119.0 72.2,120.0 73.0,120.8 74.0,120.8 75.0,120.8 76.0,120.8 77.0,120.8 78.0,120.8 79.0,120.8 79.2,121.0 79.2,122.0 79.2,123.0 79.2,124.0 79.2,125.0 79.2,126.0 79.2,127.0 79.2,128.0 79.2,129.0 79.2,130.0 79.2,131.0 79.2,132.0 79.2,133.0 79.2,134.0 79.2,135.0 79.2,136.0 79.2,137.0 79.2,138.0 79.2,139.0 80.0,139.8 81.0,139.8 82.0,139.8 83.0,139.8 83.8,139.0" stroke="black" stroke-width="1" /><polyline fill="none" points="108.8,139.0 108.8,138.0 108.8,137.0 108.8,136.0 108.0,135.2 107.0,135.2 106.0,135.2 105.0,135.2 104.0,135.2 103.0,135.2 102.0,135.2 101.0,135.2 100.0,135.2 99.0,135.2 98.0,135.2 97.8,135.0 97.8,134.0 97.8,133.0 97.8,132.0 97.8,131.0 97.8,130.0 98.0,129.8 99.0,129.8 100.0,129.8 101.0,129.8 102.0,129.8 103.0,129.8 104.0,129.8 105.0,129.8 105.8,129.0 105.8,128.0 105.8,127.0 105.0,126.2 104.0,126.2 103.0,126.2 102.0,126.2 101.0,126.2 100.0,126.2 99.0,126.2 98.0,126.2 97.8,126.0 97.8,125.0 97.8,124.0 97.8,123.0 97.8,122.0 97.8,121.0 98.0,120.8 99.0,120.8 100.0,120.8 101.0,120.8 102.0,120.8 103.0,120.8 104.0,120.8 105.0,120.8 106.0,120.8 107.0,120.8 108.0,120.8 108.8,120.0 108.8,119.0 108.8,118.0 108.0,117.2 107.0,117.2 106.0,117.2 105.0,117.2 104.0,117.2 103.0,117.2 102.0,117.2 101.0,117.2 100.0,117.2 99.0,117.2 98.0,117.2 97.0,117.2 96.0,117.2 95.0,117.2 94.0,117.2 93.2,118.0 93.2,119.0 93.2,120.0 93.2,121.0 93.2,122.0 93.2,123.0 93.2,124.0 93.2,125.0 93.2,126.0 93.2,127.0 93.2,128.0 93.2,129.0 93.2,130.0 93.2,131.0 93.2,132.0 93.2,133.0 93.2,134.0 93.2,135.0 93.2,136.0 93.2,137.0 93.2,138.0 93.2,139.0 94.0,139.8 95.0,139.8 96.0,139.8 97.0,139.8 98.0,139.8 99.0,139.8 100.0,139.8 101.0,139.8 102.0,139.8 103.0,139.8 104.0,139.8 105.0,139.8 106.0,139.8 107.0,139.8 108.0,139.8 108.8,139.0" stroke="black" stroke-width="1" /><polyline fill="none" points="145.8,139.0 146.0,138.8 147.0,138.8 148.0,138.8 148.8,138.0 149.0,137.8 149.8,137.0 150.0,136.8 150.8,136.0 151.0,135.8 151.8,135.0 152.0,134.8 152.8,134.0 153.0,133.8 153.8,133.0 153.8,132.0 153.8,131.0 153.8,130.0 154.0,129.8 154.8,129.0 154.8,128.0 154.8,127.0 154.0,126.2 153.8,126.0 153.8,125.0 153.8,124.0 153.0,123.2 152.8,123.0 152.8,122.0 152.0,121.2 151.8,121.0 151.0,120.2 150.8,120.0 150.0,119.2 149.0,119.2 148.8,119.0 148.0,118.2 147.0,118.2 146.8,118.0 146.0,117.2 145.0,117.2 144.0,117.2 143.0,117.2 142.0,117.2 141.0,117.2 140.0,117.2 139.0,117.2 138.0,117.2 137.0,117.2 136.0,117.2 135.2,118.0 135.2,119.0 135.2,120.0 135.2,121.0 135.2,122.0 135.2,123.0 135.2,124.0 135.2,125.0 135.2,126.0 135.2,127.0 135.2,128.0 135.2,129.0 135.2,130.0 135.2,131.0 135.2,132.0 135.2,133.0 135.2,134.0 135.2,135.0 135.2,136.0 135.2,137.0 135.2,138.0 135.2,139.0 136.0,139.8 137.0,139.8 138.0,139.8 139.0,139.8 140.0,139.8 141.0,139.8 142.0,139.8 143.0,139.8 144.0,139.8 145.0,139.8 145.8,139.0" stroke="black" stroke-width="1" /><polyline fill="none" points="172.8,139.0 172.8,138.0 172.8,137.0 172.8,136.0 172.0,135.2 171.0,135.2 170.0,135.2 169.0,135.2 168.0,135.2 167.0,135.2 166.0,135.2 165.0,135.2 164.0,135.2 163.0,135.2 162.0,135.2 161.8,135.0 161.8,134.0 161.8,133.0 161.8,132.0 161.8,131.0 161.8,130.0 162.0,129.8 163.0,129.8 164.0,129.8 165.0,129.8 166.0,129.8 167.0,129.8 168.0,129.8 169.0,129.8 169.8,129.0 169.8,128.0 169.8,127.0 169.0,126.2 168.0,126.2 167.0,126.2 166.0,126.2 165.0,126.2 164.0,126.2 163.0,126.2 162.0,126.2 161.8,126.0 161.8,125.0 161.8,124.0 161.8,123.0 161.8,122.0 161.8,121.0 162.0,120.8 163.0,120.8 164.0,120.8 165.0,120.8 166.0,120.8 167.0,120.8 168.0,120.8 169.0,120.8 170.0,120.8 171.0,120.8 172.0,120.8 172.8,120.0 172.8,119.0 172.8,118.0 172.0,117.2 171.0,117.2 170.0,117.2 169.0,117.2 168.0,117.2 167.0,117.2 166.0,117.2 165.0,117.2 164.0,117.2 163.0,117.2 162.0,117.2 161.0,117.2 160.0,117.2 159.0,117.2 158.0,117.2 157.2,118.0 157.2,119.0 157.2,120.0 157.2,121.0 157.2,122.0 157.2,123.0 157.2,124.0 157.2,125.0 157.2,126.0 157.2,127.0 157.2,128.0 157.2,129.0 157.2,130.0 157.2,131.0 157.2,132.0 157.2,133.0 157.2,134.0 157.2,135.0 157.2,136.0 157.2,137.0 157.2,138.0 158.0,138.8 158.2,139.0 159.0,139.8 160.0,139.8 161.0,139.8 162.0,139.8 163.0,139.8 164.0,139.8 165.0,139.8 166.0,139.8 167.0,139.8 168.0,139.8 169.0,139.8 170.0,139.8 171.0,139.8 172.0,139.8 172.8,139.0" stroke="black" stroke-width="1" /><polyline fill="none" points="194.8,139.0 194.8,138.0 194.8,137.0 194.8,136.0 194.8,135.0 194.8,134.0 194.8,133.0 194.8,132.0 194.8,131.0 194.8,130.0 194.8,129.0 194.8,128.0 194.8,127.0 194.8,126.0 194.8,125.0 194.8,124.0 194.8,123.0 194.8,122.0 194.8,121.0 194.8,120.0 194.8,119.0 194.8,118.0 194.0,117.2 193.0,117.2 192.0,117.2 191.0,117.2 190.2,118.0 190.2,119.0 190.2,120.0 190.2,121.0 190.2,122.0 190.2,123.0 190.2,124.0 190.2,125.0 190.2,126.0 190.2,127.0 190.2,128.0 190.2,129.0 190.2,130.0 190.2,131.0 190.0,131.2 189.8,131.0 189.8,130.0 189.0,129.2 188.8,129.0 188.0,128.2 187.8,128.0 187.0,127.2 186.8,127.0 186.0,126.2 185.8,126.0 185.0,125.2 184.8,125.0 184.0,124.2 183.8,124.0 183.0,123.2 182.8,123.0 182.8,122.0 182.0,121.2 181.8,121.0 181.0,120.2 180.8,120.0 180.0,119.2 179.8,119.0 179.0,118.2 178.8,118.0 178.0,117.2 177.0,117.2 176.2,118.0 176.2,119.0 176.2,120.0 176.2,121.0 176.2,122.0 176.2,123.0 176.2,124.0 176.2,125.0 176.2,126.0 176.2,127.0 176.2,128.0 176.2,129.0 176.2,130.0 176.2,131.0 176.2,132.0 176.2,133.0 176.2,134.0 176.2,135.0 176.2,136.0 176.2,137.0 176.2,138.0 176.2,139.0 177.0,139.8 178.0,139.8 179.0,139.8 179.8,139.0 180.0,138.8 180.8,138.0 180.8,137.0 180.8,136.0 180.8,135.0 180.8,134.0 180.8,133.0 180.8,132.0 180.8,131.0 180.8,130.0 180.8,129.0 180.8,128.0 180.8,127.0 180.8,126.0 181.0,125.8 181.2,126.0 182.0,126.8 182.2,127.0 182.2,128.0 183.0,128.8 183.2,129.0 184.0,129.8 184.2,130.0 185.0,130.8 185.2,131.0 186.0,131.8 186.2,132.0 187.0,132.8 187.2,133.0 188.0,133.8 188.2,134.0 189.0,134.8 189.2,135.0 189.2,136.0 190.0,136.8 190.2,137.0 191.0,137.8 191.2,138.0 192.0,138.8 192.2,139.0 193.0,139.8 194.0,139.8 194.8,139.0" stroke="black" stroke-width="1" /><polyline fill="none" points="146.0,135.2 145.0,135.2 144.0,135.2 143.0,135.2 142.0,135.2 141.0,135.2 140.0,135.2 139.8,135.0 139.8,134.0 139.8,133.0 139.8,132.0 139.8,131.0 139.8,130.0 139.8,129.0 139.8,128.0 139.8,127.0 139.8,126.0 139.8,125.0 139.8,124.0 139.8,123.0 139.8,122.0 139.8,121.0 140.0,120.8 141.0,120.8 142.0,120.8 143.0,120.8 143.2,121.0 144.0,121.8 145.0,121.8 146.0,121.8 146.2,122.0 147.0,122.8 148.0,122.8 148.2,123.0 149.0,123.8 149.2,124.0 149.2,125.0 149.2,126.0 150.0,126.8 150.2,127.0 150.2,128.0 150.2,129.0 150.0,129.2 149.2,130.0 149.2,131.0 149.2,132.0 149.0,132.2 148.2,133.0 148.0,133.2 147.2,134.0 147.0,134.2 146.2,135.0 146.0,135.2" stroke="black" stroke-width="1" /></svg>